<svg xmlns="http://www.w3.org/2000/svg" width="651" height="651" viewBox="0 0 651 651">
  <defs>
    <style>
      .cls-1, .cls-2 {
        fill-rule: evenodd;
      }

      .cls-2 {
        fill: #fff;
        stroke: #fff;
        stroke-width: 1px;
      }
    </style>
  </defs>
  <path class="cls-1" d="M115,7S380.3,537.977,474,361a544.548,544.548,0,0,0,73.07,33.673A544.563,544.563,0,0,0,633,419a6.059,6.059,0,0,1,1.732-.908,3.9,3.9,0,0,1,1.516-.027c2.53,0.5-8.6,76.148-12.248,100.935a383,383,0,0,1-63,25c-29.97,8.908-53.172,11.761-84,16h0a523.816,523.816,0,0,1-176-3L112,286l-5,297-50-1S40.6,304.4,23,266-48.133,115.95,122,5"/>
  <path class="cls-1" d="M58.531,588.629,57.51,590.5h48.98V620.5H57.51V590.5Z"/>
  <path class="cls-1" d="M308,570c0.038-1.922,167.673,26.666,313-39l-16,90H336Z"/>
  <path class="cls-1" d="M459,632"/>
  <path class="cls-1" d="M678,612"/>
  <path id="Polygon_1" data-name="Polygon 1" class="cls-2" d="M51,172l7.371,20.855,22.112,0.565L62.926,206.875l6.3,21.205L51,215.54,32.779,228.08l6.3-21.205L21.517,193.42l22.112-.565Zm2.5-68,5.35,15.137,16.049,0.41-12.743,9.765L66.725,144.7,53.5,135.6l-13.225,9.1,4.569-15.391L32.1,119.547l16.049-.41Z"/>
  <path id="Polygon_2" data-name="Polygon 2" class="cls-2" d="M341,369l4.758,13.458,14.273,0.364L348.7,391.5l4.064,13.684L341,397.1l-11.762,8.092L333.3,391.5l-11.333-8.682,14.273-.364Zm138.5,4,2.023,5.718,6.071,0.155-4.82,3.688,1.728,5.814-5-3.438-5,3.438,1.728-5.814-4.82-3.688,6.071-.155Z"/>
  <path id="Polygon_1_copy" data-name="Polygon 1 copy" class="cls-2" d="M78,331l7.367,20.86,22.1,0.566L89.92,365.884l6.292,21.21L78,374.551,59.787,387.094l6.292-21.21L48.531,352.426l22.1-.566Zm2.5-68,5.352,15.131,16.054,0.41L89.159,288.3l4.571,15.385-13.23-9.1-13.23,9.1L71.841,288.3l-12.747-9.762,16.055-.41Z"/>
  <path id="Polygon_3" data-name="Polygon 3" class="cls-2" d="M319.5,353l1.783,5.046,5.35,0.136-4.248,3.256,1.523,5.13-4.408-3.034-4.408,3.034,1.523-5.13-4.248-3.256,5.35-.136Z"/>
  <path id="Polygon_3_copy" data-name="Polygon 3 copy" class="cls-2" d="M383.5,392l1.781,5.044,5.344,0.136-4.243,3.254,1.521,5.128-4.4-3.032-4.4,3.032,1.521-5.128-4.243-3.254,5.344-.136Z"/>
</svg>
